# xmcd CD database file
#
# Track frame offsets:
#	150
#	13397
#	28285
#	45797
#	64582
#	77072
#	88172
#	103770
#	116895
#	131445
#	148700
#	160357
#
# Disc length: 2315 seconds
#
# Revision: 0
# Processed by: cddbd v1.4PL0 Copyright (c) Steve Scherf et al.
# Submitted via: CDex 1.50beta10
#
DISCID=a409090c
DTITLE=Quincy Jones - Quincy Jones explores the music of Henry Mancini
DYEAR=1964
DGENRE=Jazz
TTITLE0=Baby elephant walk
TTITLE1=Charade
TTITLE2=Dreamsville
TTITLE3=Bird brain
TTITLE4=The days of wine and roses
TTITLE5=Mr. Lucky
TTITLE6=Pink panther
TTITLE7=(I love you) Don't you forget it
TTITLE8=Soldier in the rain
TTITLE9=Odd ball
TTITLE10=Moon river
TTITLE11=Peter Gunn
EXTD=YEAR: 1964
EXTT0=
EXTT1=
EXTT2=
EXTT3=
EXTT4=
EXTT5=
EXTT6=
EXTT7=
EXTT8=
EXTT9=
EXTT10=
EXTT11=
PLAYORDER=
